# xmcd
#
# Track frame offsets:
#	150
#	16562
#	34482
#	49995
#	62515
#	77817
#	92427
#	108425
#	124232
#	142692
#	160362
#	174350
#	184872
#
# Disc length: 2670 seconds
#
# Revision: 1
# Processed by: cddbd v1.5.2PL0 Copyright (c) Steve Scherf et al.
# Submitted via: audiograbber 1.83.01
#
DISCID=a00a6c0d
DTITLE=Clint Beattie - Edge Of Town
DYEAR=1996
DGENRE=Country
TTITLE0=I Believe (The Wheel Does Turn)
TTITLE1=Surprise Me
TTITLE2=Running Out Of Road
TTITLE3=Tears Galore
TTITLE4=My Love Will Follow You
TTITLE5=It's A Done Deal
TTITLE6=From Where I'm Sitting
TTITLE7=Sharper Than The Edge Of Town
TTITLE8=Your Man
TTITLE9=Girls On The Avenue
TTITLE10=Leave Me The Radio
TTITLE11=One Good Love
TTITLE12=Boots Don't Fail Me Now (Live)
EXTD=YEAR: 1996
EXTT0=
EXTT1=
EXTT2=
EXTT3=
EXTT4=
EXTT5=
EXTT6=
EXTT7=
EXTT8=
EXTT9=
EXTT10=
EXTT11=
EXTT12=
PLAYORDER=
